# xmcd CD database file
#
# Track frame offsets:
#	150
#	14615
#	31063
#	49346
#	61922
#	81738
#	98479
#	115109
#	134494
#	150060
#	165678
#
# Disc length: 2532 seconds
#
# Revision: 0
# Processed by: cddbd v1.5.1PL2 Copyright (c) Steve Scherf et al.
# Submitted via: CDex 1.51
#
DISCID=8409e20b
DTITLE=KARU NAN - KARU NAN VOL.3
DYEAR=2005
DGENRE=Country
TTITLE0=Naciones Unidas
TTITLE1=Taquinchirami
TTITLE2=LLumilita
TTITLE3=Imbabura Querido
TTITLE4=Margarita
TTITLE5=Mirianmita
TTITLE6=Tahuantinsuyo
TTITLE7=Oruro
TTITLE8=Jacu Mascashun
TTITLE9=Linda Flor
TTITLE10=Inty Raymi
EXTD=YEAR: 2005
EXTT0=
EXTT1=
EXTT2=
EXTT3=
EXTT4=
EXTT5=
EXTT6=
EXTT7=
EXTT8=
EXTT9=
EXTT10=
PLAYORDER=
